<svg fill="#000000" xmlns="http://www.w3.org/2000/svg"  viewBox="0 0 24 24" width="24px" height="24px"><path d="M20.8413086,24c-0.324707,0-0.640625-0.0742188-0.9389648-0.2197266 c-3.2753906-1.5966797-7.9213867-4.2734375-12.0205078-6.6347656c-2.1484375-1.2382812-4.1777344-2.4072266-5.7197266-3.2519531 C1.4345703,13.4951172,1,12.7871094,1,12s0.4345703-1.4951172,1.1621094-1.8935547 c1.5385742-0.84375,3.5629883-2.0097656,5.706543-3.2451172C11.972168,4.4970703,16.6235352,1.8173828,19.902832,0.21875 l0.0014648-0.0009766C20.2026367,0.0732422,20.5180664,0,20.8413086,0C22.0317383,0,23,0.9619141,23,2.1435547 l-0.0009766,9.8554688L23,21.8554688C23,23.0380859,22.0317383,24,20.8413086,24z M20.3413086,1.1171875 c-3.2485352,1.5839844-7.8837891,4.2548828-11.9736328,6.6113281c-2.1479492,1.2373047-4.1767578,2.40625-5.7250977,3.2548828 C2.2402344,11.2041016,2,11.5839844,2,12s0.2402344,0.7958984,0.6425781,1.0166016 c1.5512695,0.8496094,3.5849609,2.0214844,5.7382812,3.2617188c4.0849609,2.3535156,8.715332,5.0214844,11.9604492,6.6035156 C21.1005859,23.2529297,22,22.65625,22,21.8554688l-0.0009766-9.8564453L22,2.1435547 C22,1.34375,21.1044922,0.7460938,20.3413086,1.1171875L20.3413086,1.1171875z"/></svg>