<svg fill="#000000" xmlns="http://www.w3.org/2000/svg"  viewBox="0 0 24 24" width="24px" height="24px"><path d="M3.1586914,24C1.9682617,24,1,23.0380859,1,21.8554688L1.0009766,12L1,2.1435547 C1,0.9619141,1.9682617,0,3.1586914,0c0.3232422,0,0.6386719,0.0732422,0.9370117,0.2177734 c3.2768555,1.5976562,7.9228516,4.2744141,12.0219727,6.6357422c2.1484375,1.2382812,4.1782227,2.4072266,5.7202148,3.2519531 C22.5654297,10.5039062,23,11.2119141,23,11.9990234s-0.4345703,1.4951172-1.1621094,1.8935547 c-1.5390625,0.84375-3.5634766,2.0097656-5.7070312,3.2451172c-4.1035156,2.3642578-8.7548828,5.0439453-12.0336914,6.6425781 C3.7988281,23.9257812,3.4833984,24,3.1586914,24z M3.1586914,1C2.5200195,1,2,1.5126953,2,2.1435547L2.0009766,12L2,21.8554688 c0.0004883,0.8007812,0.9013672,1.3974609,1.6582031,1.0263672h0.0004883 c3.2480469-1.5839844,7.8833008-4.2539062,11.9726562-6.6103516c2.1484375-1.2382812,4.1777344-2.4072266,5.7260742-3.2558594 C21.7597656,12.7949219,22,12.4150391,22,11.9990234s-0.2402344-0.7958984-0.6425781-1.0166016 c-1.5512695-0.8496094-3.5854492-2.0214844-5.7387695-3.2626953c-4.0854492-2.3535156-8.715332-5.0205078-11.9599609-6.6025391 C3.4985352,1.0400391,3.3295898,1,3.1586914,1z"/></svg>